<mxfile host="app.diagrams.net" modified="2020-07-26T02:12:45.831Z" agent="5.0 (Windows NT 10.0; Win64; x64) AppleWebKit/537.36 (KHTML, like Gecko) Chrome/84.0.4147.89 Safari/537.36" etag="r81bfYVrfwQRCKLWZttz" version="13.5.3" type="github">
  <diagram id="yLzmegSohmoGIzop5uJQ" name="Page-1">
    <mxGraphModel dx="1422" dy="794" grid="1" gridSize="10" guides="1" tooltips="1" connect="1" arrows="1" fold="1" page="1" pageScale="1" pageWidth="827" pageHeight="1169" math="0" shadow="0">
      <root>
        <mxCell id="0" />
        <mxCell id="1" parent="0" />
        <mxCell id="bNUcm6e0znMUV06pvCAH-1" value="" style="whiteSpace=wrap;html=1;" vertex="1" parent="1">
          <mxGeometry x="51" y="70" width="726" height="405" as="geometry" />
        </mxCell>
        <mxCell id="bNUcm6e0znMUV06pvCAH-3" value="" style="endArrow=none;html=1;entryX=0.208;entryY=-0.002;entryDx=0;entryDy=0;entryPerimeter=0;" edge="1" parent="1" target="bNUcm6e0znMUV06pvCAH-1">
          <mxGeometry width="50" height="50" relative="1" as="geometry">
            <mxPoint x="202" y="476" as="sourcePoint" />
            <mxPoint x="201.5" y="70" as="targetPoint" />
          </mxGeometry>
        </mxCell>
        <mxCell id="bNUcm6e0znMUV06pvCAH-5" value="项目/类型" style="rounded=0;whiteSpace=wrap;html=1;" vertex="1" parent="1">
          <mxGeometry x="60" y="100" width="120" height="30" as="geometry" />
        </mxCell>
        <mxCell id="bNUcm6e0znMUV06pvCAH-8" value="README.md" style="rounded=0;whiteSpace=wrap;html=1;" vertex="1" parent="1">
          <mxGeometry x="100" y="140" width="80" height="30" as="geometry" />
        </mxCell>
        <mxCell id="bNUcm6e0znMUV06pvCAH-9" value="1.md" style="rounded=0;whiteSpace=wrap;html=1;" vertex="1" parent="1">
          <mxGeometry x="100" y="180" width="80" height="30" as="geometry" />
        </mxCell>
        <mxCell id="bNUcm6e0znMUV06pvCAH-10" value="2.md" style="rounded=0;whiteSpace=wrap;html=1;fontStyle=1" vertex="1" parent="1">
          <mxGeometry x="100" y="220" width="80" height="30" as="geometry" />
        </mxCell>
        <mxCell id="bNUcm6e0znMUV06pvCAH-11" value="&lt;span&gt;项目/类型&lt;/span&gt;" style="rounded=0;whiteSpace=wrap;html=1;" vertex="1" parent="1">
          <mxGeometry x="60" y="260" width="120" height="30" as="geometry" />
        </mxCell>
        <mxCell id="bNUcm6e0znMUV06pvCAH-12" value="README.md" style="rounded=0;whiteSpace=wrap;html=1;fontStyle=1" vertex="1" parent="1">
          <mxGeometry x="100" y="300" width="80" height="30" as="geometry" />
        </mxCell>
        <mxCell id="bNUcm6e0znMUV06pvCAH-13" value="1.md" style="rounded=0;whiteSpace=wrap;html=1;fontStyle=1" vertex="1" parent="1">
          <mxGeometry x="100" y="340" width="80" height="30" as="geometry" />
        </mxCell>
        <mxCell id="bNUcm6e0znMUV06pvCAH-14" value="" style="rounded=0;whiteSpace=wrap;html=1;" vertex="1" parent="1">
          <mxGeometry x="216" y="85" width="250" height="375" as="geometry" />
        </mxCell>
        <mxCell id="bNUcm6e0znMUV06pvCAH-15" value="" style="rounded=0;whiteSpace=wrap;html=1;" vertex="1" parent="1">
          <mxGeometry x="514" y="85" width="250" height="375" as="geometry" />
        </mxCell>
        <mxCell id="bNUcm6e0znMUV06pvCAH-16" value="" style="shape=flexArrow;endArrow=classic;html=1;" edge="1" parent="1">
          <mxGeometry width="50" height="50" relative="1" as="geometry">
            <mxPoint x="470" y="261" as="sourcePoint" />
            <mxPoint x="510" y="261" as="targetPoint" />
          </mxGeometry>
        </mxCell>
        <mxCell id="bNUcm6e0znMUV06pvCAH-17" value="" style="rounded=0;whiteSpace=wrap;html=1;" vertex="1" parent="1">
          <mxGeometry x="51" y="520" width="729" height="340" as="geometry" />
        </mxCell>
        <mxCell id="bNUcm6e0znMUV06pvCAH-19" value="" style="endArrow=none;html=1;entryX=0.25;entryY=1;entryDx=0;entryDy=0;exitX=0.25;exitY=0;exitDx=0;exitDy=0;" edge="1" parent="1" source="bNUcm6e0znMUV06pvCAH-17" target="bNUcm6e0znMUV06pvCAH-17">
          <mxGeometry width="50" height="50" relative="1" as="geometry">
            <mxPoint x="180" y="980" as="sourcePoint" />
            <mxPoint x="230" y="930" as="targetPoint" />
          </mxGeometry>
        </mxCell>
        <mxCell id="bNUcm6e0znMUV06pvCAH-20" value="&lt;b&gt;H1&lt;/b&gt;" style="text;html=1;strokeColor=none;fillColor=none;align=center;verticalAlign=middle;whiteSpace=wrap;rounded=0;" vertex="1" parent="1">
          <mxGeometry x="95" y="550" width="90" height="20" as="geometry" />
        </mxCell>
        <mxCell id="bNUcm6e0znMUV06pvCAH-21" value="h2" style="text;html=1;strokeColor=none;fillColor=none;align=center;verticalAlign=middle;whiteSpace=wrap;rounded=0;" vertex="1" parent="1">
          <mxGeometry x="110" y="575" width="90" height="20" as="geometry" />
        </mxCell>
        <mxCell id="bNUcm6e0znMUV06pvCAH-22" value="h2" style="text;html=1;strokeColor=none;fillColor=none;align=center;verticalAlign=middle;whiteSpace=wrap;rounded=0;" vertex="1" parent="1">
          <mxGeometry x="110" y="595" width="90" height="20" as="geometry" />
        </mxCell>
        <mxCell id="bNUcm6e0znMUV06pvCAH-23" value="h2" style="text;html=1;strokeColor=none;fillColor=none;align=center;verticalAlign=middle;whiteSpace=wrap;rounded=0;" vertex="1" parent="1">
          <mxGeometry x="110" y="615" width="90" height="20" as="geometry" />
        </mxCell>
        <mxCell id="bNUcm6e0znMUV06pvCAH-24" value="h2" style="text;html=1;strokeColor=none;fillColor=none;align=center;verticalAlign=middle;whiteSpace=wrap;rounded=0;" vertex="1" parent="1">
          <mxGeometry x="110" y="635" width="90" height="20" as="geometry" />
        </mxCell>
        <mxCell id="bNUcm6e0znMUV06pvCAH-25" value="&lt;b&gt;H1&lt;/b&gt;" style="text;html=1;strokeColor=none;fillColor=none;align=center;verticalAlign=middle;whiteSpace=wrap;rounded=0;" vertex="1" parent="1">
          <mxGeometry x="95" y="660" width="90" height="20" as="geometry" />
        </mxCell>
        <mxCell id="bNUcm6e0znMUV06pvCAH-26" value="h2" style="text;html=1;strokeColor=none;fillColor=none;align=center;verticalAlign=middle;whiteSpace=wrap;rounded=0;" vertex="1" parent="1">
          <mxGeometry x="110" y="685" width="90" height="20" as="geometry" />
        </mxCell>
        <mxCell id="bNUcm6e0znMUV06pvCAH-27" value="h2" style="text;html=1;strokeColor=none;fillColor=none;align=center;verticalAlign=middle;whiteSpace=wrap;rounded=0;" vertex="1" parent="1">
          <mxGeometry x="110" y="705" width="90" height="20" as="geometry" />
        </mxCell>
        <mxCell id="bNUcm6e0znMUV06pvCAH-28" value="h2" style="text;html=1;strokeColor=none;fillColor=none;align=center;verticalAlign=middle;whiteSpace=wrap;rounded=0;" vertex="1" parent="1">
          <mxGeometry x="110" y="725" width="90" height="20" as="geometry" />
        </mxCell>
        <mxCell id="bNUcm6e0znMUV06pvCAH-29" value="h2" style="text;html=1;strokeColor=none;fillColor=none;align=center;verticalAlign=middle;whiteSpace=wrap;rounded=0;" vertex="1" parent="1">
          <mxGeometry x="110" y="745" width="90" height="20" as="geometry" />
        </mxCell>
        <mxCell id="bNUcm6e0znMUV06pvCAH-30" value="&lt;h1&gt;Heading&lt;/h1&gt;&lt;p&gt;Lorem ipsum dolor sit amet, consectetur adipisicing elit, sed do eiusmod tempor incididunt ut labore et dolore magna aliqua.&lt;/p&gt;" style="text;html=1;strokeColor=none;fillColor=none;spacing=5;spacingTop=-20;whiteSpace=wrap;overflow=hidden;rounded=0;" vertex="1" parent="1">
          <mxGeometry x="280" y="537.5" width="410" height="215" as="geometry" />
        </mxCell>
      </root>
    </mxGraphModel>
  </diagram>
</mxfile>
